<?xml version="1.0" standalone="no"?>
<!DOCTYPE svg PUBLIC "-//W3C//DTD SVG 20010904//EN"
 "http://www.w3.org/TR/2001/REC-SVG-20010904/DTD/svg10.dtd">
<svg version="1.0" xmlns="http://www.w3.org/2000/svg"
 width="225.000000pt" height="225.000000pt" viewBox="0 0 225.000000 225.000000"
 preserveAspectRatio="xMidYMid meet">

<g transform="translate(0.000000,225.000000) scale(0.100000,-0.100000)"
fill="#000000" stroke="none">
<path d="M975 2105 c-17 -16 -25 -35 -25 -60 l0 -35 190 0 190 0 0 25 c0 38
-26 82 -52 89 -13 3 -81 6 -151 6 -123 0 -129 -1 -152 -25z"/>
<path d="M736 1956 c-90 -33 -136 -117 -136 -248 l0 -68 535 0 535 0 0 93 c0
109 -19 153 -88 202 l-44 30 -381 2 c-307 2 -390 0 -421 -11z"/>
<path d="M604 1527 c-2 -7 -3 -305 -2 -663 l3 -649 23 -40 c13 -22 42 -53 65
-70 l42 -30 380 -3 c254 -2 392 0 417 8 48 14 94 53 118 101 19 37 20 63 20
699 l0 660 -530 0 c-429 0 -532 -3 -536 -13z m326 -669 c0 -508 -2 -563 -17
-580 -20 -22 -61 -23 -85 -1 -17 15 -18 46 -18 580 l0 563 60 0 60 0 0 -562z
m270 0 c0 -508 -2 -563 -17 -580 -20 -22 -61 -23 -85 -1 -17 15 -18 46 -18
580 l0 563 60 0 60 0 0 -562z m270 2 c0 -547 0 -560 -20 -580 -28 -28 -64 -25
-89 6 -21 26 -21 35 -21 580 l0 554 65 0 65 0 0 -560z"/>
</g>
</svg>
