<?xml version="1.0" standalone="no"?>
<!DOCTYPE svg PUBLIC "-//W3C//DTD SVG 20010904//EN"
 "http://www.w3.org/TR/2001/REC-SVG-20010904/DTD/svg10.dtd">
<svg version="1.0" xmlns="http://www.w3.org/2000/svg"
 width="225.000000pt" height="225.000000pt" viewBox="0 0 225.000000 225.000000"
 preserveAspectRatio="xMidYMid meet">

<g transform="translate(0.000000,225.000000) scale(0.100000,-0.100000)"
fill="#000000" stroke="none">
<path d="M148 1601 l-3 -511 165 0 c152 0 169 2 215 24 60 27 107 73 138 130
16 31 22 58 22 116 0 65 -4 82 -30 129 -16 29 -44 65 -62 79 l-33 25 48 51
c136 144 93 358 -88 439 -37 17 -73 21 -207 25 l-163 5 -2 -512z m360 408 c49
-24 96 -87 106 -145 10 -52 -17 -133 -56 -170 -54 -52 -74 -58 -210 -62 l-128
-4 0 201 0 201 122 0 c104 0 128 -3 166 -21z m-2 -474 c117 -58 147 -204 61
-302 -52 -59 -94 -73 -229 -73 l-118 0 0 200 0 200 118 0 c105 0 123 -3 168
-25z"/>
<path d="M764 2097 c-3 -8 -4 -191 -2 -408 3 -378 4 -396 24 -439 29 -61 78
-108 143 -138 101 -46 227 -19 304 67 74 82 72 69 72 521 l0 405 -35 0 -35 0
-5 -405 c-6 -446 -4 -438 -70 -493 -82 -69 -203 -58 -277 26 -49 55 -53 98
-53 507 l0 370 -30 0 c-17 0 -33 -6 -36 -13z"/>
<path d="M1420 1913 c0 -171 3 -204 19 -239 26 -56 85 -111 143 -132 47 -16
48 -18 48 -57 l0 -40 -42 3 c-30 2 -53 -3 -76 -18 -60 -37 -62 -52 -62 -437
l0 -348 -84 82 c-90 87 -121 101 -193 90 -73 -12 -127 -99 -104 -168 7 -23 76
-99 216 -239 l205 -205 0 -102 0 -103 35 0 35 0 0 118 0 117 -210 210 c-183
183 -210 214 -210 241 0 39 27 64 70 64 30 0 49 -16 172 -137 l138 -137 0 432
c0 419 1 433 20 452 22 22 46 25 70 10 13 -8 16 -57 20 -307 l5 -298 33 -3 32
-3 0 88 c0 107 14 136 63 131 44 -4 57 -35 57 -136 l0 -83 33 3 32 3 3 95 c3
102 12 120 58 120 41 0 54 -35 54 -147 l0 -103 35 0 35 0 0 73 c0 59 4 77 18
90 25 22 48 21 72 -3 19 -19 20 -33 20 -369 0 -304 -2 -352 -16 -365 -8 -9
-24 -16 -35 -16 -17 0 -19 -8 -19 -70 l0 -70 35 0 c34 0 35 1 35 39 0 30 5 42
25 55 43 28 46 66 43 448 -3 344 -4 358 -24 385 -28 38 -94 61 -133 46 -26 -9
-30 -8 -40 13 -25 55 -112 80 -171 49 -27 -14 -33 -14 -61 1 -19 9 -47 14 -70
12 l-39 -4 0 242 0 241 41 12 c51 15 126 83 150 136 16 34 19 68 19 238 l0
197 -34 0 -35 0 -3 -199 -3 -199 -31 -39 c-70 -88 -189 -99 -267 -25 -50 47
-52 57 -57 262 l-5 195 -32 3 -33 3 0 -198z"/>
</g>
</svg>
