<?xml version="1.0" standalone="no"?>
<!DOCTYPE svg PUBLIC "-//W3C//DTD SVG 20010904//EN"
 "http://www.w3.org/TR/2001/REC-SVG-20010904/DTD/svg10.dtd">
<svg version="1.0" xmlns="http://www.w3.org/2000/svg"
 width="1267.000000pt" height="1280.000000pt" viewBox="0 0 1267.000000 1280.000000"
 preserveAspectRatio="xMidYMid meet">
<metadata>
Created by potrace 1.15, written by Peter Selinger 2001-2017
</metadata>
<g transform="translate(0.000000,1280.000000) scale(0.100000,-0.100000)"
fill="#000000" stroke="none">
<path d="M9250 12794 c-945 -85 -1724 -499 -2301 -1224 -301 -378 -533 -892
-624 -1381 -50 -271 -48 -214 -52 -1796 l-4 -1483 -3134 0 -3135 0 0 -3455 0
-3455 4095 0 4095 0 0 3455 0 3455 -451 0 -450 0 4 1438 c4 1555 2 1491 58
1742 48 214 171 504 289 685 203 309 468 557 785 732 321 178 659 264 1040
265 595 1 1117 -214 1541 -637 327 -326 530 -716 609 -1170 30 -174 35 -391
35 -1717 l0 -1338 510 0 511 0 -3 1483 c-3 1353 -5 1492 -21 1602 -79 538
-236 957 -513 1375 -122 183 -240 327 -404 490 -510 511 -1133 816 -1865 915
-115 16 -515 28 -615 19z"/>
</g>
</svg>
